<svg width="24" height="24" viewBox="0 0 24 24" fill="none" xmlns="http://www.w3.org/2000/svg">
<path d="M8.57143 2.57143C8.57143 1.15179 9.72321 0 11.1429 0H12.8571C14.2768 0 15.4286 1.15179 15.4286 2.57143V21.4286C15.4286 22.8482 14.2768 24 12.8571 24H11.1429C9.72321 24 8.57143 22.8482 8.57143 21.4286V2.57143ZM0 12.8571C0 11.4375 1.15179 10.2857 2.57143 10.2857H4.28571C5.70536 10.2857 6.85714 11.4375 6.85714 12.8571V21.4286C6.85714 22.8482 5.70536 24 4.28571 24H2.57143C1.15179 24 0 22.8482 0 21.4286V12.8571ZM19.7143 3.42857H21.4286C22.8482 3.42857 24 4.58036 24 6V21.4286C24 22.8482 22.8482 24 21.4286 24H19.7143C18.2946 24 17.1429 22.8482 17.1429 21.4286V6C17.1429 4.58036 18.2946 3.42857 19.7143 3.42857Z" fill="white"/>
</svg>
